<?xml version="1.0" standalone="no"?>
<!DOCTYPE svg PUBLIC "-//W3C//DTD SVG 20010904//EN"
 "http://www.w3.org/TR/2001/REC-SVG-20010904/DTD/svg10.dtd">
<svg version="1.0" xmlns="http://www.w3.org/2000/svg"
 width="490.000000pt" height="490.000000pt" viewBox="0 0 490.000000 490.000000"
 preserveAspectRatio="xMidYMid meet">
<metadata>
Created by potrace 1.11, written by Peter Selinger 2001-2013
</metadata>
<g transform="translate(0.000000,490.000000) scale(0.100000,-0.100000)"
fill="#000000" stroke="none">
<path d="M2285 4885 c-554 -129 -1891 -458 -1909 -471 -60 -38 -84 -130 -51
-193 16 -32 70 -81 88 -81 7 0 29 -5 49 -11 l38 -10 0 -278 0 -277 -30 -22
c-50 -37 -81 -102 -81 -170 -1 -68 17 -110 67 -162 l34 -35 -75 -294 c-41
-161 -75 -309 -75 -328 0 -45 25 -91 53 -98 12 -3 121 -4 241 -3 l219 3 21 28
c15 20 20 41 19 70 -1 23 -35 174 -77 334 l-74 293 23 18 c40 31 73 90 80 141
10 70 -9 125 -61 181 l-44 47 0 248 0 247 23 -6 c12 -3 149 -36 305 -73 155
-37 282 -71 282 -76 0 -5 -16 -50 -36 -98 -110 -277 -113 -574 -9 -866 124
-346 418 -627 775 -741 144 -46 211 -56 375 -56 164 0 231 10 375 56 357 114
651 395 775 741 104 292 101 589 -9 866 -20 48 -36 93 -36 98 0 5 213 60 473
122 500 120 518 126 552 191 21 41 19 106 -5 145 -11 18 -39 42 -62 54 -25 12
-440 118 -978 247 l-935 226 -130 4 c-87 2 -150 -1 -190 -11z"/>
<path d="M1365 1814 c-282 -51 -538 -194 -724 -405 -238 -269 -340 -553 -329
-918 4 -118 9 -156 26 -199 45 -114 163 -230 275 -269 50 -17 133 -18 1842
-18 1709 0 1792 1 1842 18 112 39 230 155 275 269 17 43 22 81 26 199 11 365
-91 649 -329 918 -189 215 -445 356 -733 406 -177 30 -107 79 -626 -440 l-455
-455 -455 455 -455 455 -50 -1 c-28 0 -86 -7 -130 -15z"/>
</g>
</svg>
